<?xml version="1.0" encoding="utf-8"?>
<!-- Generated by IcoMoon.io -->
<!DOCTYPE svg PUBLIC "-//W3C//DTD SVG 1.1//EN" "http://www.w3.org/Graphics/SVG/1.1/DTD/svg11.dtd">
<svg version="1.1" xmlns="http://www.w3.org/2000/svg" xmlns:xlink="http://www.w3.org/1999/xlink" width="16" height="16" viewBox="0 0 16 16">
<g>
</g>
	<path d="M14.036 12.374l-3.023-3.023c0.456-0.75 0.718-1.628 0.718-2.57 0-2.733-2.369-5.102-5.102-5.102-2.733 0-4.949 2.216-4.949 4.949 0 2.734 2.368 5.102 5.102 5.102 0.909 0 1.76-0.246 2.492-0.674l3.039 3.040c0.298 0.298 0.78 0.298 1.077 0l0.754-0.754c0.297-0.298 0.189-0.672-0.108-0.969zM3.203 6.629c0-1.892 1.534-3.426 3.426-3.426 1.893 0 3.579 1.686 3.579 3.579s-1.534 3.426-3.426 3.426-3.578-1.686-3.578-3.579z" fill="#b6b6b6"></path>
</svg>
